<?xml version="1.0" standalone="no"?>
<!DOCTYPE svg PUBLIC "-//W3C//DTD SVG 20010904//EN"
 "http://www.w3.org/TR/2001/REC-SVG-20010904/DTD/svg10.dtd">
<svg version="1.0" xmlns="http://www.w3.org/2000/svg"
 width="24.000000pt" height="24.000000pt" viewBox="0 0 24.000000 24.000000"
 preserveAspectRatio="xMidYMid meet">

<g transform="translate(0.000000,24.000000) scale(0.100000,-0.100000)"
fill="#000000" stroke="none">
<path d="M31 216 c-17 -20 -3 -46 25 -46 13 0 24 4 24 10 0 5 7 7 15 4 8 -4
21 -1 28 5 10 8 19 6 35 -10 28 -25 28 -43 1 -68 -17 -16 -26 -18 -45 -9 -22
10 -29 25 -25 55 1 8 -5 10 -14 7 -12 -5 -13 -10 -6 -17 6 -6 11 -15 11 -20 0
-5 -7 -2 -15 7 -28 27 -69 -10 -44 -40 15 -18 24 -18 43 2 14 14 15 11 12 -25
-2 -22 -7 -44 -11 -50 -4 -7 11 -11 44 -11 28 0 51 5 51 10 0 6 11 10 25 10
19 0 26 7 34 36 6 21 6 44 1 57 -5 12 -11 34 -14 49 -8 34 -55 61 -91 52 -14
-3 -25 -11 -25 -16 0 -5 -7 -2 -16 6 -19 20 -28 20 -43 2z m37 -18 c-6 -18
-28 -21 -28 -4 0 9 7 16 16 16 9 0 14 -5 12 -12z m-10 -86 c2 -7 -3 -12 -12
-12 -9 0 -16 7 -16 16 0 17 22 14 28 -4z"/>
<path d="M114 155 c-7 -18 3 -35 21 -35 18 0 26 25 12 39 -15 15 -27 14 -33
-4z"/>
</g>
</svg>
