<?xml version="1.0" standalone="no"?>
<!DOCTYPE svg PUBLIC "-//W3C//DTD SVG 20010904//EN"
 "http://www.w3.org/TR/2001/REC-SVG-20010904/DTD/svg10.dtd">
<svg version="1.0" xmlns="http://www.w3.org/2000/svg"
 width="256.000000pt" height="256.000000pt" viewBox="0 0 256.000000 256.000000"
 preserveAspectRatio="xMidYMid meet">

<g transform="translate(0.000000,256.000000) scale(0.100000,-0.100000)"
fill="#000000" stroke="none">
<path d="M285 2353 c-82 -43 -122 -117 -111 -207 14 -121 59 -195 143 -233 60
-28 98 -26 164 7 47 25 106 93 119 139 14 51 12 126 -4 165 -20 48 -75 107
-121 127 -50 23 -148 24 -190 2z m172 -34 c85 -32 137 -155 103 -243 -18 -48
-79 -104 -136 -126 -81 -30 -88 -28 -137 43 -52 73 -67 113 -68 186 -2 59 16
91 71 129 37 25 117 30 167 11z"/>
<path d="M2090 2349 c-83 -38 -127 -100 -137 -194 -8 -78 17 -143 76 -198 69
-65 143 -83 204 -49 91 50 127 102 148 213 21 115 -6 180 -92 223 -65 32 -135
34 -199 5z m163 -33 c18 -7 46 -28 61 -47 27 -31 28 -37 24 -109 -5 -84 -36
-155 -89 -206 -28 -27 -30 -27 -81 -15 -71 15 -111 41 -145 92 -24 36 -28 53
-28 109 0 56 4 73 28 109 47 71 150 101 230 67z"/>
<path d="M5 1833 c-8 -46 3 -700 15 -834 5 -61 16 -115 30 -148 27 -62 109
-140 174 -167 25 -11 46 -23 46 -29 0 -25 -41 -272 -55 -332 -15 -63 -13 -103
4 -103 20 0 30 32 46 140 16 111 50 279 57 284 1 1 39 -1 82 -4 75 -5 79 -6
83 -30 2 -14 29 -101 59 -195 52 -156 74 -205 94 -205 21 0 15 39 -20 132 -21
57 -49 140 -61 183 -12 44 -25 87 -30 96 -7 14 -1 18 39 23 51 7 81 21 69 32
-3 4 -73 8 -154 9 -120 2 -159 7 -206 24 -68 24 -129 66 -163 113 -51 68 -55
106 -64 571 -4 237 -11 442 -15 455 -11 33 -22 27 -30 -15z"/>
<path d="M2524 1853 c-4 -10 -10 -223 -14 -473 l-6 -455 -26 -56 c-45 -99
-137 -165 -262 -188 -33 -6 -113 -11 -177 -11 -65 0 -120 -4 -124 -9 -6 -11
55 -31 93 -31 21 0 23 -3 17 -32 -16 -74 -58 -206 -89 -282 -31 -75 -36 -106
-16 -106 22 0 42 43 100 217 35 103 64 189 66 191 6 8 149 21 155 14 4 -4 22
-92 39 -197 32 -189 48 -239 71 -205 5 8 7 29 4 45 -6 29 -50 288 -60 352 -5
26 -2 33 17 38 46 14 121 70 159 117 65 83 68 103 80 583 7 238 9 448 5 468
-7 40 -19 47 -32 20z"/>
<path d="M290 1797 c-56 -29 -95 -78 -120 -150 -31 -88 -41 -174 -47 -423 -5
-204 -4 -234 11 -266 40 -85 179 -130 453 -147 75 -4 127 -12 137 -20 11 -10
16 -31 16 -75 0 -98 20 -287 36 -343 31 -111 123 -170 203 -129 56 29 61 83
36 369 -17 185 -27 240 -56 306 -50 113 -116 159 -245 172 -47 5 -94 13 -104
19 -41 22 -57 85 -52 198 l2 42 40 -20 c94 -48 231 -62 369 -39 139 24 183 83
121 161 -29 38 -95 65 -217 89 -59 12 -128 32 -153 44 -25 13 -83 63 -130 112
-47 49 -101 96 -122 106 -52 24 -125 22 -178 -6z m156 -33 c18 -9 62 -46 96
-83 127 -135 178 -163 353 -191 121 -19 206 -82 162 -119 -8 -6 -48 -19 -88
-27 -84 -18 -268 -15 -356 7 -48 11 -52 15 -59 48 l-7 36 -10 -40 c-5 -22 -10
-87 -11 -145 -1 -94 1 -108 21 -136 30 -42 73 -61 164 -72 94 -12 132 -31 172
-88 53 -75 66 -130 89 -386 18 -200 19 -242 8 -262 -29 -56 -115 -36 -151 34
-28 54 -38 120 -46 288 -5 129 -9 157 -25 177 -24 30 -74 45 -158 45 -83 0
-182 14 -293 41 -163 40 -175 69 -158 357 14 221 26 308 53 380 25 67 61 110
113 133 50 23 87 24 131 3z"/>
<path d="M2090 1804 c-19 -8 -81 -62 -136 -119 -112 -115 -107 -112 -329 -164
-137 -32 -199 -85 -181 -155 9 -37 68 -62 183 -77 109 -15 222 -2 312 34 l59
24 5 -51 c6 -62 -4 -126 -26 -160 -19 -28 -71 -46 -132 -46 -143 0 -247 -114
-280 -308 -17 -99 -38 -426 -30 -468 3 -19 19 -44 37 -59 27 -23 39 -26 76
-22 114 13 158 109 168 367 3 80 7 155 10 167 6 29 47 39 189 47 156 8 298 40
355 79 78 52 89 117 71 405 -14 211 -24 282 -52 357 -48 129 -186 198 -299
149z m156 -40 c19 -9 50 -34 68 -56 63 -73 84 -184 93 -488 7 -239 1 -265 -65
-299 -56 -29 -223 -60 -367 -69 -141 -9 -168 -21 -184 -79 -6 -21 -11 -79 -11
-130 0 -125 -17 -239 -43 -293 -27 -56 -84 -89 -123 -71 -44 20 -47 49 -29
266 24 306 45 379 126 448 45 39 56 42 168 56 129 16 157 54 154 206 0 55 -5
118 -11 140 l-9 40 -8 -37 c-7 -36 -8 -37 -79 -53 -91 -21 -250 -21 -343 0
-81 18 -100 33 -83 64 17 32 81 60 203 87 61 13 130 33 152 44 23 11 82 62
132 113 51 52 107 101 125 110 42 21 91 21 134 1z"/>
<path d="M761 1229 c-19 -8 -22 -12 -12 -22 8 -8 67 -13 190 -15 l179 -4 0
-494 c-1 -497 4 -571 32 -478 8 28 10 178 8 510 l-3 470 83 2 82 2 0 -178 c0
-97 3 -226 6 -287 3 -60 9 -193 13 -295 9 -180 20 -248 41 -235 13 8 13 96 1
295 -6 85 -13 277 -16 425 l-7 270 226 0 c163 0 228 3 237 12 29 29 -43 33
-539 32 -295 0 -507 -4 -521 -10z"/>
</g>
</svg>
