<?xml version="1.0" standalone="no"?>
<!DOCTYPE svg PUBLIC "-//W3C//DTD SVG 20010904//EN"
 "http://www.w3.org/TR/2001/REC-SVG-20010904/DTD/svg10.dtd">
<svg version="1.0" xmlns="http://www.w3.org/2000/svg"
 width="224.000000pt" height="181.000000pt" viewBox="0 0 224.000000 181.000000"
 preserveAspectRatio="xMidYMid meet">

<g transform="translate(0.000000,181.000000) scale(0.100000,-0.100000)"
fill="#000000" stroke="none">
<path d="M867 1680 c-107 -118 -111 -271 -9 -335 26 -16 31 -27 32 -57 0 -35
-1 -37 -37 -40 -41 -3 -41 -3 -32 -93 l4 -40 -79 -5 c-51 -3 -81 -10 -84 -17
-2 -9 10 -13 41 -13 67 0 77 -6 77 -51 0 -28 4 -39 15 -39 11 0 15 11 15 39
l0 39 173 7 c94 3 228 5 297 3 l125 -3 3 -42 c3 -34 7 -43 22 -43 15 0 19 9
22 43 l3 42 53 3 c65 4 74 29 11 34 l-41 3 -27 85 c-18 58 -32 86 -44 88 -23
5 -22 -11 8 -97 25 -76 22 -88 -22 -79 -16 3 -18 16 -21 101 -2 76 -6 97 -17
97 -11 0 -15 -21 -17 -95 -4 -140 -22 -124 -26 23 -2 98 -5 122 -17 122 -12 0
-15 -24 -17 -122 -3 -144 -22 -168 -26 -35 -2 67 -6 87 -17 87 -11 0 -15 -20
-17 -87 l-3 -88 -110 0 -110 0 4 35 c2 19 4 49 5 65 1 30 0 31 -51 34 -20 1
-23 7 -23 39 0 31 5 41 29 55 75 44 100 165 53 255 -24 44 -88 122 -102 122
-4 0 -24 -18 -43 -40z m77 -45 c71 -92 75 -175 12 -243 l-21 -24 -5 74 c-4 56
-8 73 -20 73 -12 0 -16 -17 -20 -75 l-5 -75 -27 29 c-31 32 -43 80 -35 133 6
37 70 143 86 143 5 0 21 -16 35 -35z m20 -433 c3 -5 0 -27 -6 -51 -10 -41 -12
-42 -47 -39 -32 3 -37 7 -49 41 -6 22 -10 43 -6 48 7 11 101 12 108 1z"/>
<path d="M1821 995 c-36 -31 -37 -35 -71 -200 l-26 -130 -211 -3 -212 -2 -20
-27 c-19 -23 -21 -39 -21 -179 0 -145 1 -153 21 -159 14 -5 19 -14 17 -28 -3
-22 -5 -22 -213 -22 l-210 0 -3 108 -3 107 36 0 c28 0 35 4 35 20 0 16 -7 20
-35 20 l-35 0 0 54 c0 72 -12 102 -52 126 -30 18 -51 20 -215 20 l-181 0 -37
110 c-24 71 -42 110 -51 110 -19 0 -18 -12 16 -120 16 -52 30 -96 30 -97 0 -1
-17 -3 -37 -5 -57 -5 -51 -32 8 -36 l45 -3 33 -99 c29 -90 35 -100 57 -100 13
0 24 -3 24 -7 0 -5 -26 -53 -58 -108 l-57 -100 -113 -3 c-90 -2 -112 -5 -112
-17 0 -13 125 -15 980 -15 864 0 980 2 980 15 0 12 -19 15 -109 15 -60 0 -116
3 -125 6 -20 8 -21 40 -2 47 8 3 18 35 25 84 20 145 71 553 71 574 0 11 -11
31 -25 44 -34 35 -102 35 -144 0z m110 -24 l23 -19 -17 -136 c-9 -75 -19 -141
-22 -146 -7 -12 -142 -14 -148 -2 -8 12 51 273 65 289 28 34 68 40 99 14z
m-1121 -331 c16 -16 20 -33 20 -80 l0 -60 -172 2 -171 3 -24 69 c-12 39 -23
74 -23 78 0 4 79 8 175 8 162 0 177 -2 195 -20z m1096 -23 c3 -8 -3 -74 -14
-148 l-18 -134 -287 -3 -287 -2 0 139 c0 123 2 141 18 150 10 6 126 11 300 11
227 0 284 -3 288 -13z m-1078 -264 l-3 -108 -179 -3 c-104 -1 -184 2 -189 7
-9 9 22 74 85 179 l20 32 134 0 135 0 -3 -107z m980 -85 l-3 -23 -210 0 -210
0 -3 23 -3 22 216 0 216 0 -3 -22z"/>
</g>
</svg>
