<?xml version="1.0" standalone="no"?>
<!DOCTYPE svg PUBLIC "-//W3C//DTD SVG 20010904//EN"
 "http://www.w3.org/TR/2001/REC-SVG-20010904/DTD/svg10.dtd">
<svg version="1.0" xmlns="http://www.w3.org/2000/svg"
 width="260.000000pt" height="280.000000pt" viewBox="0 0 260.000000 280.000000"
 preserveAspectRatio="xMidYMid meet">

<g transform="translate(0.000000,280.000000) scale(0.100000,-0.100000)"
fill="#000000" stroke="none">
<path d="M1250 2358 c-109 -31 -160 -147 -111 -254 34 -74 119 -114 198 -94
63 15 102 45 124 94 50 110 -2 223 -116 255 -46 13 -48 13 -95 -1z"/>
<path d="M1135 1961 c-41 -11 -107 -45 -127 -68 -34 -37 -48 -90 -48 -182 l0
-90 -40 -46 c-173 -200 -158 -499 34 -683 276 -265 721 -143 830 227 44 148 1
335 -104 456 l-40 46 0 95 c0 144 -39 203 -159 238 -70 20 -96 20 -133 -1
l-30 -18 7 -92 7 -93 -32 0 -32 0 7 93 7 92 -30 18 c-31 18 -66 20 -117 8z
m270 -305 c121 -32 223 -118 278 -233 30 -63 32 -76 32 -173 0 -97 -2 -110
-32 -172 -44 -94 -109 -160 -202 -206 -72 -36 -79 -37 -181 -37 -102 0 -109 1
-182 38 -91 45 -157 112 -202 207 -29 60 -31 73 -31 170 0 97 2 110 31 170 56
117 134 186 253 227 76 26 162 29 236 9z"/>
<path d="M980 1383 c-32 -11 -40 -37 -40 -131 0 -104 8 -127 46 -136 40 -11
74 16 74 59 0 43 -27 49 -32 8 -2 -20 -9 -29 -25 -31 -23 -3 -23 -1 -23 98 0
99 0 101 23 98 14 -2 23 -11 25 -25 5 -34 32 -29 32 6 0 39 -41 67 -80 54z"/>
<path d="M1360 1383 c-24 -8 -40 -34 -40 -64 0 -18 14 -44 40 -74 45 -52 54
-95 19 -95 -12 0 -23 8 -26 20 -8 29 -33 25 -33 -4 0 -27 33 -56 62 -56 28 0
58 37 58 70 0 22 -12 43 -40 74 -44 48 -55 96 -21 96 10 0 21 -8 23 -18 6 -23
38 -25 38 -2 0 35 -45 65 -80 53z"/>
<path d="M1570 1377 c-19 -9 -26 -22 -28 -49 -3 -30 4 -43 37 -82 46 -53 55
-96 20 -96 -12 0 -23 8 -26 20 -8 29 -33 25 -33 -4 0 -27 33 -56 62 -56 28 0
58 37 58 70 0 22 -12 43 -40 74 -44 48 -55 96 -21 96 10 0 21 -8 23 -18 6 -23
38 -25 38 -2 0 41 -49 67 -90 47z"/>
<path d="M1095 1250 c0 -117 2 -130 18 -130 14 0 17 9 17 55 0 55 4 61 34 49
12 -4 16 -20 16 -55 0 -42 3 -49 20 -49 17 0 20 7 20 43 0 24 -6 52 -14 62
-12 16 -12 22 1 42 18 27 12 91 -9 105 -7 4 -33 8 -58 8 l-45 0 0 -130z m80
55 c0 -34 -3 -40 -22 -43 -21 -3 -23 1 -23 43 0 42 2 46 23 43 19 -3 22 -9 22
-43z"/>
<path d="M1250 1250 c0 -123 1 -130 20 -130 19 0 20 7 20 130 0 123 -1 130
-20 130 -19 0 -20 -7 -20 -130z"/>
<path d="M1470 1250 c0 -123 1 -130 20 -130 19 0 20 7 20 130 0 123 -1 130
-20 130 -19 0 -20 -7 -20 -130z"/>
</g>
</svg>
