<?xml version="1.0" standalone="no"?>
<!DOCTYPE svg PUBLIC "-//W3C//DTD SVG 20010904//EN"
 "http://www.w3.org/TR/2001/REC-SVG-20010904/DTD/svg10.dtd">
<svg version="1.0" xmlns="http://www.w3.org/2000/svg"
 width="512.000000pt" height="512.000000pt" viewBox="0 0 512.000000 512.000000"
 preserveAspectRatio="xMidYMid meet">

<g transform="translate(0.000000,512.000000) scale(0.100000,-0.100000)"
fill="#000000" stroke="none">
<path d="M695 3549 c-70 -14 -171 -47 -230 -77 -125 -62 -278 -202 -341 -315
l-32 -55 136 -105 137 -105 28 59 c15 33 53 86 83 118 104 113 215 163 364
163 117 0 201 -29 306 -107 11 -7 42 19 130 105 l115 115 -48 43 c-56 49 -201
124 -288 147 -73 19 -290 28 -360 14z"/>
<path d="M2200 2730 l0 -730 95 0 95 0 0 295 0 295 181 0 c217 0 291 14 376
69 154 100 226 254 202 429 -25 179 -186 334 -375 362 -38 5 -183 10 -321 10
l-253 0 0 -730z m614 526 c160 -80 200 -275 83 -403 -70 -77 -92 -83 -314 -83
l-193 0 0 256 0 256 193 -4 c166 -3 197 -6 231 -22z"/>
<path d="M3540 3019 c-75 -13 -169 -59 -225 -110 -77 -71 -77 -72 12 -128 l77
-50 47 44 c74 69 101 80 204 80 80 0 95 -3 137 -27 83 -49 128 -124 128 -212
l0 -37 -30 16 c-114 59 -375 59 -493 -1 -99 -50 -158 -129 -178 -234 -34 -189
103 -359 312 -389 137 -19 254 21 339 117 l50 56 0 -72 0 -72 90 0 90 0 0 313
c0 333 -7 412 -45 494 -74 164 -283 250 -515 212z m288 -546 c64 -21 92 -42
92 -67 0 -80 -84 -197 -174 -243 -137 -70 -302 -18 -336 106 -25 94 48 186
173 217 62 16 179 10 245 -13z"/>
<path d="M4130 2988 c0 -7 90 -216 200 -465 110 -250 200 -458 200 -463 0 -5
-49 -116 -110 -246 -60 -131 -110 -242 -110 -246 0 -4 42 -8 93 -8 l92 0 303
698 c166 384 305 708 309 720 5 23 5 23 -92 20 l-98 -3 -146 -359 c-100 -250
-148 -355 -154 -345 -4 8 -73 169 -151 359 l-143 345 -96 3 c-73 2 -97 0 -97
-10z"/>
<path d="M840 2720 l0 -160 230 0 229 0 -13 -45 c-42 -137 -168 -253 -313
-285 -79 -18 -210 -14 -283 9 -126 39 -234 132 -293 251 l-34 66 -117 -92
c-168 -130 -157 -111 -105 -190 112 -172 290 -300 494 -355 104 -28 296 -31
400 -6 161 39 270 100 380 211 88 89 146 187 184 309 30 97 46 264 35 362 l-9
80 -392 3 -393 2 0 -160z"/>
</g>
</svg>
